<svg class="" width="42" height="42" viewBox="0 0 42 42" fill="none" xmlns="http://www.w3.org/2000/svg">
<path d="M35.4375 10.1719H29.8594L28.5305 6.44766C28.4387 6.19282 28.2704 5.97254 28.0487 5.81691C27.827 5.66128 27.5627 5.57789 27.2918 5.57813H14.7082C14.1545 5.57813 13.6582 5.92676 13.4736 6.44766L12.1406 10.1719H6.5625C4.74961 10.1719 3.28125 11.6402 3.28125 13.4531V32.1562C3.28125 33.9691 4.74961 35.4375 6.5625 35.4375H35.4375C37.2504 35.4375 38.7188 33.9691 38.7188 32.1562V13.4531C38.7188 11.6402 37.2504 10.1719 35.4375 10.1719ZM35.7656 32.1562C35.7656 32.3367 35.618 32.4844 35.4375 32.4844H6.5625C6.38203 32.4844 6.23438 32.3367 6.23438 32.1562V13.4531C6.23438 13.2727 6.38203 13.125 6.5625 13.125H14.2201L14.9215 11.1645L15.8607 8.53125H26.1352L27.0744 11.1645L27.7758 13.125H35.4375C35.618 13.125 35.7656 13.2727 35.7656 13.4531V32.1562ZM21 15.75C17.3742 15.75 14.4375 18.6867 14.4375 22.3125C14.4375 25.9383 17.3742 28.875 21 28.875C24.6258 28.875 27.5625 25.9383 27.5625 22.3125C27.5625 18.6867 24.6258 15.75 21 15.75ZM21 26.25C18.8262 26.25 17.0625 24.4863 17.0625 22.3125C17.0625 20.1387 18.8262 18.375 21 18.375C23.1738 18.375 24.9375 20.1387 24.9375 22.3125C24.9375 24.4863 23.1738 26.25 21 26.25Z" fill="black"/>
</svg>
