<svg class="" width="25" height="34" viewBox="0 0 25 34" fill="none" xmlns="http://www.w3.org/2000/svg">
<path d="M12.5 16.9946C10.7812 16.9946 9.375 15.4651 9.375 13.5957C9.375 11.7263 10.7812 10.1968 12.5 10.1968C14.2188 10.1968 15.625 11.7263 15.625 13.5957C15.625 15.4651 14.2188 16.9946 12.5 16.9946ZM21.875 13.9356C21.875 7.76653 17.7344 3.39892 12.5 3.39892C7.26562 3.39892 3.125 7.76653 3.125 13.9356C3.125 17.9123 6.17187 23.1806 12.5 29.4686C18.8281 23.1806 21.875 17.9123 21.875 13.9356ZM12.5 0C19.0625 0 25 5.47226 25 13.9356C25 19.5778 20.8281 26.2567 12.5 33.9892C4.17188 26.2567 0 19.5778 0 13.9356C0 5.47226 5.9375 0 12.5 0Z" fill="black"/>
</svg>
